<?xml version="1.0" encoding="UTF-8" standalone="no"?>
<svg
   xmlns:dc="http://purl.org/dc/elements/1.1/"
   xmlns:cc="http://creativecommons.org/ns#"
   xmlns:rdf="http://www.w3.org/1999/02/22-rdf-syntax-ns#"
   xmlns:svg="http://www.w3.org/2000/svg"
   xmlns="http://www.w3.org/2000/svg"
   xmlns:sodipodi="http://sodipodi.sourceforge.net/DTD/sodipodi-0.dtd"
   xmlns:inkscape="http://www.inkscape.org/namespaces/inkscape"
   inkscape:version="1.0 (4035a4fb49, 2020-05-01)"
   sodipodi:docname="calcIcon.svg"
   id="svg8"
   version="1.1"
   viewBox="0 0 45.074375 45.074375"
   height="45.074375mm"
   width="45.074375mm">
  <defs
     id="defs2">
    <rect
       id="rect134"
       height="18.520832"
       width="19.84375"
       y="87.3125"
       x="123.03125" />
    <rect
       id="rect124"
       height="11.90625"
       width="13.229167"
       y="88.635414"
       x="129.64583" />
  </defs>
  <sodipodi:namedview
     inkscape:window-maximized="1"
     inkscape:window-y="26"
     inkscape:window-x="0"
     inkscape:window-height="848"
     inkscape:window-width="1600"
     showgrid="false"
     inkscape:document-rotation="0"
     inkscape:current-layer="g926"
     inkscape:document-units="mm"
     inkscape:cy="84.806266"
     inkscape:cx="55.778846"
     inkscape:zoom="3.959798"
     inkscape:pageshadow="2"
     inkscape:pageopacity="0.0"
     borderopacity="1.0"
     bordercolor="#666666"
     pagecolor="#ffffff"
     id="base">
    <inkscape:grid
       originy="-85.645196"
       originx="-65.998776"
       id="grid51"
       type="xygrid" />
  </sodipodi:namedview>
  <metadata
     id="metadata5">
    <rdf:RDF>
      <cc:Work
         rdf:about="">
        <dc:format>image/svg+xml</dc:format>
        <dc:type
           rdf:resource="http://purl.org/dc/dcmitype/StillImage" />
      </cc:Work>
    </rdf:RDF>
  </metadata>
  <g
     transform="translate(-65.998778,-85.645199)"
     id="layer1"
     inkscape:groupmode="layer"
     inkscape:label="Layer 1">
    <g
       id="g62">
      <g
         id="g49">
        <path
           sodipodi:nodetypes="csc"
           id="path16"
           d="m 66.143502,123.13074 c 0,0 -0.647767,7.44411 7.444112,7.44411 h 29.896706"
           style="fill:none;stroke:#000000;stroke-width:0.264583px;stroke-linecap:butt;stroke-linejoin:miter;stroke-opacity:1" />
        <path
           sodipodi:nodetypes="csc"
           style="fill:none;stroke:#000000;stroke-width:0.264583px;stroke-linecap:butt;stroke-linejoin:miter;stroke-opacity:1"
           d="m 103.48432,130.57485 c 0,0 7.44411,0.64777 7.44411,-7.44411 V 93.234039"
           id="path16-3" />
        <path
           sodipodi:nodetypes="csc"
           style="fill:none;stroke:#000000;stroke-width:0.264583px;stroke-linecap:butt;stroke-linejoin:miter;stroke-opacity:1"
           d="m 73.587612,85.789923 c 0,0 -7.44411,-0.647767 -7.44411,7.444112 v 29.896705"
           id="path16-6" />
        <path
           sodipodi:nodetypes="csc"
           style="fill:none;stroke:#000000;stroke-width:0.264583px;stroke-linecap:butt;stroke-linejoin:miter;stroke-opacity:1"
           d="m 110.92843,93.234039 c 0,0 0.64777,-7.44411 -7.44411,-7.44411 H 73.587616"
           id="path16-7" />
      </g>
      <path
         style="fill:none;stroke:#000000;stroke-width:0.264583px;stroke-linecap:butt;stroke-linejoin:miter;stroke-opacity:1"
         d="m 72.760416,92.604166 v 7.937504 H 104.51042 V 92.604166 H 72.760416"
         id="path55" />
      <path
         style="fill:none;stroke:#000000;stroke-width:0.264583px;stroke-linecap:butt;stroke-linejoin:miter;stroke-opacity:1"
         d="m 71.437499,108.47916 v 3.96875 c 0,0 0,1.32292 1.322916,1.32292 1.322917,0 3.96875,0 3.96875,0 0,0 1.322917,0 1.322917,-1.32292 0,-1.32291 0,-3.96875 0,-3.96875 0,0 0,-1.32291 -1.322917,-1.32291 -1.322916,0 -3.96875,0 -3.96875,0 0,0 -1.322916,0 -1.322916,1.32291 z"
         id="path57" />
      <path
         id="path57-5"
         d="m 80.697916,108.47916 v 3.96875 c 0,0 0,1.32292 1.322916,1.32292 1.322917,0 3.96875,0 3.96875,0 0,0 1.322917,0 1.322917,-1.32292 0,-1.32291 0,-3.96875 0,-3.96875 0,0 0,-1.32291 -1.322917,-1.32291 -1.322916,0 -3.96875,0 -3.96875,0 0,0 -1.322916,0 -1.322916,1.32291 z"
         style="fill:none;stroke:#000000;stroke-width:0.264583px;stroke-linecap:butt;stroke-linejoin:miter;stroke-opacity:1" />
      <path
         id="path57-3"
         d="m 89.958333,108.47916 v 3.96875 c 0,0 0,1.32292 1.322916,1.32292 1.322917,0 3.96875,0 3.96875,0 0,0 1.322917,0 1.322917,-1.32292 0,-1.32291 0,-3.96875 0,-3.96875 0,0 0,-1.32291 -1.322917,-1.32291 -1.322916,0 -3.96875,0 -3.96875,0 0,0 -1.322916,0 -1.322916,1.32291 z"
         style="fill:none;stroke:#000000;stroke-width:0.264583px;stroke-linecap:butt;stroke-linejoin:miter;stroke-opacity:1" />
      <path
         id="path57-56"
         d="m 89.958334,117.73958 v 3.96875 c 0,0 0,1.32292 1.322916,1.32292 1.322917,0 3.96875,0 3.96875,0 0,0 1.322917,0 1.322917,-1.32292 0,-1.32291 0,-3.96875 0,-3.96875 0,0 0,-1.32291 -1.322917,-1.32291 -1.322916,0 -3.96875,0 -3.96875,0 0,0 -1.322916,0 -1.322916,1.32291 z"
         style="fill:none;stroke:#000000;stroke-width:0.264583px;stroke-linecap:butt;stroke-linejoin:miter;stroke-opacity:1" />
      <path
         id="path57-2"
         d="m 80.697916,117.73958 v 3.96875 c 0,0 0,1.32292 1.322916,1.32292 1.322917,0 3.96875,0 3.96875,0 0,0 1.322917,0 1.322917,-1.32292 0,-1.32291 0,-3.96875 0,-3.96875 0,0 0,-1.32291 -1.322917,-1.32291 -1.322916,0 -3.96875,0 -3.96875,0 0,0 -1.322916,0 -1.322916,1.32291 z"
         style="fill:none;stroke:#000000;stroke-width:0.264583px;stroke-linecap:butt;stroke-linejoin:miter;stroke-opacity:1" />
      <path
         id="path57-9"
         d="m 71.4375,117.73958 v 3.96875 c 0,0 0,1.32292 1.322916,1.32292 1.322917,0 3.96875,0 3.96875,0 0,0 1.322917,0 1.322917,-1.32292 0,-1.32291 0,-3.96875 0,-3.96875 0,0 0,-1.32291 -1.322917,-1.32291 -1.322916,0 -3.96875,0 -3.96875,0 0,0 -1.322916,0 -1.322916,1.32291 z"
         style="fill:none;stroke:#000000;stroke-width:0.264583px;stroke-linecap:butt;stroke-linejoin:miter;stroke-opacity:1" />
      <path
         style="fill:none;stroke:#000000;stroke-width:0.264583px;stroke-linecap:butt;stroke-linejoin:miter;stroke-opacity:1"
         d="m 99.218753,108.47917 v 13.22916 c 0,0 0,1.32292 1.322907,1.32292 1.32292,0 3.96875,0 3.96875,0 0,0 1.32292,0 1.32292,-1.32292 0,-1.32291 0,-13.22916 0,-13.22916 0,0 0,-1.32292 -1.32292,-1.32292 -1.32291,0 -3.96875,0 -3.96875,0 0,0 -1.322907,0 -1.322907,1.32292 z"
         id="path98" />
      <path
         style="fill:#cccccc;fill-opacity:1;stroke-width:0.357143"
         d="m 272.60039,492.48656 c -6.59353,-0.96723 -10.76478,-2.92343 -14.76638,-6.92504 -3.2874,-3.28739 -5.0202,-6.37864 -6.33066,-11.29364 l -0.8008,-3.00347 v -61.60714 c 0,-65.80245 -0.0578,-63.55023 1.76976,-68.95208 2.68563,-7.93802 9.01273,-13.31357 17.80879,-15.13044 2.40337,-0.49643 9.71035,-0.5598 64.0671,-0.55565 59.4243,0.005 61.46108,0.0266 64.7472,0.7012 6.78777,1.39342 12.53411,5.24003 15.66617,10.48696 1.65397,2.77078 3.15338,7.32566 3.60152,10.94064 0.49439,3.988 0.51206,116.08241 0.0192,121.61651 -0.68943,7.74089 -2.7308,12.60144 -7.12483,16.96437 -3.77484,3.74813 -8.10204,5.84882 -13.94774,6.77112 -2.83399,0.44713 -121.65698,0.43442 -124.7093,-0.0134 z m 20.35009,-27.57877 c 0.64708,-0.35329 1.49023,-1.15686 1.87367,-1.78572 0.64419,-1.05651 0.69721,-1.84879 0.69794,-10.42909 7.1e-4,-10.21262 -0.12535,-10.91058 -2.25555,-12.47461 -0.94586,-0.69446 -1.56184,-0.74649 -10.0769,-0.85115 -8.42341,-0.10354 -9.18415,-0.0607 -10.67947,0.60071 -2.96539,1.31173 -3.05475,1.67351 -3.05629,12.37348 -0.002,10.7042 0.10258,11.15931 2.88223,12.59867 1.54238,0.79868 1.79728,0.81601 10.50929,0.71429 7.79449,-0.091 9.07801,-0.18583 10.10508,-0.74658 z m 35,0 c 0.64708,-0.35329 1.49023,-1.15686 1.87367,-1.78572 0.64419,-1.05651 0.69721,-1.84879 0.69794,-10.42909 7.1e-4,-10.21262 -0.12535,-10.91058 -2.25555,-12.47461 -0.94586,-0.69446 -1.56184,-0.74649 -10.0769,-0.85115 -8.4234,-0.10354 -9.18415,-0.0607 -10.67947,0.60071 -2.96539,1.31173 -3.05475,1.67351 -3.05629,12.37348 -0.001,10.7042 0.10258,11.15931 2.88223,12.59867 1.54238,0.79868 1.79728,0.81601 10.50929,0.71429 7.79449,-0.091 9.07801,-0.18583 10.10508,-0.74658 z m 35,0 c 0.64708,-0.35329 1.49023,-1.15686 1.87367,-1.78572 0.64419,-1.05651 0.69721,-1.84879 0.69794,-10.42909 7.1e-4,-10.21262 -0.12535,-10.91058 -2.25555,-12.47461 -0.94586,-0.69446 -1.56184,-0.74649 -10.0769,-0.85115 -8.4234,-0.10354 -9.18415,-0.0607 -10.67947,0.60071 -2.96539,1.31173 -3.05475,1.67351 -3.05629,12.37348 -0.001,10.7042 0.10258,11.15931 2.88223,12.59867 1.54238,0.79868 1.79728,0.81601 10.50929,0.71429 7.79449,-0.091 9.07801,-0.18583 10.10508,-0.74658 z m 35,0 c 0.64708,-0.35329 1.49023,-1.15686 1.87367,-1.78572 0.67506,-1.10714 0.69718,-1.99206 0.69794,-27.92909 7.1e-4,-24.79702 -0.0456,-26.87663 -0.62367,-28.01032 -0.34344,-0.67354 -1.07779,-1.55747 -1.63188,-1.96429 -0.94586,-0.69446 -1.56184,-0.74649 -10.0769,-0.85115 -8.4234,-0.10354 -9.18415,-0.0607 -10.67947,0.60071 -0.983,0.43483 -1.89136,1.17367 -2.33248,1.89719 -0.70822,1.16163 -0.7225,1.7136 -0.72381,27.97629 -0.001,30.38472 -0.18079,28.51257 2.88223,30.09867 1.54238,0.79868 1.79728,0.81601 10.50929,0.71429 7.79449,-0.091 9.07801,-0.18583 10.10508,-0.74658 z m -105,-35 c 0.64708,-0.35329 1.49023,-1.15686 1.87367,-1.78572 0.64419,-1.05651 0.69721,-1.84879 0.69794,-10.42909 7.1e-4,-10.21262 -0.12535,-10.91058 -2.25555,-12.47461 -0.94586,-0.69446 -1.56184,-0.74649 -10.0769,-0.85115 -8.42341,-0.10354 -9.18415,-0.0607 -10.67947,0.60071 -2.96539,1.31173 -3.05475,1.67351 -3.05629,12.37348 -0.002,10.7042 0.10258,11.15931 2.88223,12.59867 1.54238,0.79868 1.79728,0.81601 10.50929,0.71429 7.79449,-0.091 9.07801,-0.18583 10.10508,-0.74658 z m 35,0 c 0.64708,-0.35329 1.49023,-1.15686 1.87367,-1.78572 0.64419,-1.05651 0.69721,-1.84879 0.69794,-10.42909 7.1e-4,-10.21262 -0.12535,-10.91058 -2.25555,-12.47461 -0.94586,-0.69446 -1.56184,-0.74649 -10.0769,-0.85115 -8.4234,-0.10354 -9.18415,-0.0607 -10.67947,0.60071 -2.96539,1.31173 -3.05475,1.67351 -3.05629,12.37348 -0.001,10.7042 0.10258,11.15931 2.88223,12.59867 1.54238,0.79868 1.79728,0.81601 10.50929,0.71429 7.79449,-0.091 9.07801,-0.18583 10.10508,-0.74658 z m 35,0 c 0.64708,-0.35329 1.49023,-1.15686 1.87367,-1.78572 0.64419,-1.05651 0.69721,-1.84879 0.69794,-10.42909 7.1e-4,-10.21262 -0.12535,-10.91058 -2.25555,-12.47461 -0.94586,-0.69446 -1.56184,-0.74649 -10.0769,-0.85115 -8.4234,-0.10354 -9.18415,-0.0607 -10.67947,0.60071 -2.96539,1.31173 -3.05475,1.67351 -3.05629,12.37348 -0.001,10.7042 0.10258,11.15931 2.88223,12.59867 1.54238,0.79868 1.79728,0.81601 10.50929,0.71429 7.79449,-0.091 9.07801,-0.18583 10.10508,-0.74658 z m 32.5735,-64.89338 v -15.71428 h -60.31894 c -54.67351,0 -60.33922,0.0529 -60.53571,0.56492 -0.11923,0.31071 -0.21678,7.38214 -0.21678,15.71429 v 15.14936 h 60.53571 60.53572 z"
         id="path100"
         transform="scale(0.26458333)" />
      <path
         style="fill:#333333;fill-opacity:1;stroke-width:0.357143"
         d="m 272.14446,428.1349 c -1.57296,-1.57296 -1.70091,-2.56939 -1.55795,-12.13219 l 0.11604,-7.7617 1.16696,-1.16687 1.16696,-1.16687 9.08558,-0.10638 c 10.46576,-0.12253 10.79896,-0.0509 11.78665,2.5354 0.50471,1.32155 0.57565,2.80314 0.47888,10.00141 l -0.11361,8.45005 -1.16697,1.1669 -1.16697,1.16691 -9.29816,0.1063 -9.29815,0.1063 z"
         id="path102"
         transform="scale(0.26458333)" />
      <path
         style="fill:#333333;fill-opacity:1;stroke-width:0.357143"
         d="m 272.14446,463.1349 c -1.57296,-1.57296 -1.70091,-2.56939 -1.55795,-12.13219 l 0.11604,-7.7617 1.16696,-1.16687 1.16696,-1.16687 9.08558,-0.10638 c 10.46576,-0.12253 10.79896,-0.0509 11.78665,2.5354 0.50471,1.32155 0.57565,2.80314 0.47888,10.00141 l -0.11361,8.45005 -1.16697,1.1669 -1.16697,1.16691 -9.29816,0.1063 -9.29815,0.1063 z"
         id="path104"
         transform="scale(0.26458333)" />
      <path
         style="fill:#333333;fill-opacity:1;stroke-width:0.357143"
         d="m 307.67395,464.746 c -0.68358,-0.34344 -1.60769,-1.17053 -2.05357,-1.83797 -0.79147,-1.18476 -0.81069,-1.43606 -0.81069,-10.5976 v -9.38407 l 0.96547,-1.14739 c 1.67475,-1.99034 2.4125,-2.1217 11.91551,-2.1217 9.39679,0 10.16356,0.13672 11.58331,2.06538 0.66606,0.90483 0.72138,1.62422 0.81948,10.65616 l 0.1052,9.68583 -0.98138,1.16631 c -1.68921,2.0075 -2.42386,2.14066 -11.80683,2.14005 -7.37356,-4.6e-4 -8.65752,-0.0829 -9.7365,-0.625 z m 19.44086,-0.59461 c 2.42225,-1.01208 2.51631,-1.43981 2.51631,-11.4424 0,-12.97086 0.61394,-12.33743 -11.95802,-12.33743 -12.96712,0 -12.3277,-0.61048 -12.3277,11.7697 0,13.12973 -0.586,12.51276 11.88647,12.51468 6.67583,0.001 8.95091,-0.11513 9.88294,-0.50455 z"
         id="path106"
         transform="scale(0.26458333)" />
      <path
         style="fill:#333333;fill-opacity:1;stroke-width:0.357143"
         d="m 308.0584,463.85768 c -0.47213,-0.24772 -1.19535,-0.90416 -1.60714,-1.45874 -0.71409,-0.9617 -0.74871,-1.428 -0.74871,-10.08242 v -9.07408 l 1.16694,-1.16759 1.16694,-1.16758 8.9839,-0.10712 c 9.88166,-0.11782 10.63095,0.001 11.64549,1.85385 0.52737,0.96291 0.60816,2.3074 0.60816,10.1214 v 9.01099 l -1.16696,1.16758 -1.16696,1.16759 -9.01162,0.0933 c -6.71379,0.0695 -9.23049,-0.0216 -9.87004,-0.35714 z"
         id="path108"
         transform="scale(0.26458333)" />
      <path
         style="fill:#333333;fill-opacity:1;stroke-width:0.357143"
         d="m 307.14447,428.1349 c -1.57297,-1.57296 -1.70092,-2.56939 -1.55796,-12.13219 l 0.11604,-7.7617 1.16696,-1.16687 1.16696,-1.16687 9.08558,-0.10638 c 10.46576,-0.12253 10.79896,-0.0509 11.78666,2.5354 0.5047,1.32155 0.57564,2.80314 0.47887,10.00141 l -0.1136,8.45005 -1.16698,1.1669 -1.16697,1.16691 -9.29816,0.1063 -9.29815,0.1063 z"
         id="path110"
         transform="scale(0.26458333)" />
      <path
         style="fill:#333333;fill-opacity:1;stroke-width:0.357143"
         d="m 342.14447,428.1349 c -1.57297,-1.57296 -1.70092,-2.56939 -1.55796,-12.13219 l 0.11604,-7.7617 1.16696,-1.16687 1.16696,-1.16687 9.08558,-0.10638 c 10.46576,-0.12253 10.79896,-0.0509 11.78666,2.5354 0.5047,1.32155 0.57564,2.80314 0.47887,10.00141 l -0.1136,8.45005 -1.16698,1.1669 -1.16697,1.16691 -9.29816,0.1063 -9.29815,0.1063 z"
         id="path112"
         transform="scale(0.26458333)" />
      <path
         style="fill:#333333;fill-opacity:1;stroke-width:0.357143"
         d="m 342.14447,463.1349 c -1.57297,-1.57296 -1.70092,-2.56939 -1.55796,-12.13219 l 0.11604,-7.7617 1.16696,-1.16687 1.16696,-1.16687 9.08558,-0.10638 c 10.46576,-0.12253 10.79896,-0.0509 11.78666,2.5354 0.5047,1.32155 0.57564,2.80314 0.47887,10.00141 l -0.1136,8.45005 -1.16698,1.1669 -1.16697,1.16691 -9.29816,0.1063 -9.29815,0.1063 z"
         id="path114"
         transform="scale(0.26458333)" />
      <path
         style="fill:#333333;fill-opacity:1;stroke-width:0.357143"
         d="m 377.14447,463.1349 c -0.85973,-0.85972 -1.26404,-1.64817 -1.42806,-2.78487 -0.12584,-0.87209 -0.18044,-12.95313 -0.12133,-26.84676 l 0.10747,-25.26115 1.16696,-1.16743 1.16696,-1.16742 9.08558,-0.10638 c 10.4486,-0.12233 10.80236,-0.0469 11.77395,2.50949 0.51915,1.36597 0.56922,4.24131 0.47887,27.50089 l -0.10089,25.97542 -1.16698,1.16743 -1.16697,1.16744 -9.29816,0.1063 -9.29815,0.1063 z"
         id="path116"
         transform="scale(0.26458333)" />
    </g>
    <text
       id="text120"
       y="99.21875"
       x="96.572914"
       style="font-style:normal;font-weight:normal;font-size:10.5833px;line-height:1.25;font-family:sans-serif;letter-spacing:0px;word-spacing:0px;white-space:pre;inline-size:6.61459;fill:#000000;fill-opacity:1;stroke:none;stroke-width:0.264583"
       xml:space="preserve" />
    <text
       style="font-style:normal;font-weight:normal;font-size:10.5833px;line-height:1.25;font-family:sans-serif;letter-spacing:0px;word-spacing:0px;white-space:pre;shape-inside:url(#rect124);fill:#000000;fill-opacity:1;stroke:none;"
       id="text122"
       xml:space="preserve" />
    <text
       id="text130"
       y="93.927086"
       x="134.9375"
       style="font-style:normal;font-weight:normal;font-size:10.5833px;line-height:1.25;font-family:sans-serif;letter-spacing:0px;word-spacing:0px;fill:#000000;fill-opacity:1;stroke:none;stroke-width:0.264583"
       xml:space="preserve"><tspan
         style="stroke-width:0.264583"
         y="93.927086"
         x="134.9375"
         id="tspan128"
         sodipodi:role="line">fdsafdsa fdsa</tspan></text>
    <text
       style="font-style:normal;font-weight:normal;font-size:10.5833px;line-height:1.25;font-family:sans-serif;letter-spacing:0px;word-spacing:0px;white-space:pre;shape-inside:url(#rect134);fill:#000000;fill-opacity:1;stroke:none;"
       id="text132"
       xml:space="preserve" />
    <g
       id="g926">
      <path
         style="fill:none;stroke:#000000;stroke-width:0.365;stroke-linecap:butt;stroke-linejoin:miter;stroke-opacity:1;stroke-miterlimit:4;stroke-dasharray:none"
         d="m 99.218752,93.927086 c 0,0 -1.749007,0 -1.749007,2.645833 0,2.645834 1.749007,2.645834 1.749007,2.645834 0,0 1.748028,0.06598 1.748028,-2.579849 0,-2.645833 -1.748028,-2.711818 -1.748028,-2.711818 z"
         id="path64"
         sodipodi:nodetypes="cscsc" />
      <path
         sodipodi:nodetypes="cscsc"
         id="path64-3"
         d="m 93.927085,93.927085 c 0,0 -1.74901,0 -1.74901,2.645833 0,2.645835 1.74901,2.645835 1.74901,2.645835 0,0 1.74803,0.06598 1.74803,-2.57985 0,-2.645833 -1.74803,-2.711818 -1.74803,-2.711818 z"
         style="fill:none;stroke:#000000;stroke-width:0.265;stroke-linecap:butt;stroke-linejoin:miter;stroke-opacity:1;stroke-miterlimit:4;stroke-dasharray:0.265,0.265;stroke-dashoffset:0" />
      <path
         sodipodi:nodetypes="cscsc"
         id="path64-7"
         d="m 88.635419,93.927086 c 0,0 -1.749008,0 -1.749008,2.645833 0,2.645835 1.749008,2.645835 1.749008,2.645835 0,0 1.748028,0.06598 1.748028,-2.57985 0,-2.645833 -1.748028,-2.711818 -1.748028,-2.711818 z"
         style="fill:none;stroke:#000000;stroke-width:0.265;stroke-linecap:butt;stroke-linejoin:miter;stroke-opacity:1;stroke-miterlimit:4;stroke-dasharray:0.265,0.265;stroke-dashoffset:0" />
      <path
         sodipodi:nodetypes="cscsc"
         id="path64-5"
         d="m 83.343752,93.927086 c 0,0 -1.749008,0 -1.749008,2.645833 0,2.645835 1.749008,2.645835 1.749008,2.645835 0,0 1.748028,0.066 1.748028,-2.57985 0,-2.645833 -1.748028,-2.711818 -1.748028,-2.711818 z"
         style="fill:none;stroke:#000000;stroke-width:0.26458299;stroke-linecap:butt;stroke-linejoin:miter;stroke-opacity:1;stroke-miterlimit:4;stroke-dasharray:0.26458299,0.26458299;stroke-dashoffset:0" />
      <path
         style="fill:none;stroke:#000000;stroke-width:0.264583;stroke-linecap:butt;stroke-linejoin:miter;stroke-miterlimit:4;stroke-dasharray:0.264583, 0.264583;stroke-dashoffset:0;stroke-opacity:1"
         d="m 78.052085,93.927086 c 0,0 -1.749008,0 -1.749008,2.645833 0,2.645835 1.749008,2.645835 1.749008,2.645835 0,0 1.748027,0.066 1.748027,-2.57985 0,-2.645833 -1.748027,-2.711818 -1.748027,-2.711818 z"
         id="path64-5-6"
         sodipodi:nodetypes="cscsc" />
      <path
         transform="matrix(0.26458333,0,0,0.26458333,65.998778,85.645199)"
         id="path949"
         d="m 127.93463,139.38975 c -0.59415,-0.64655 -1.19077,-1.46618 -1.32582,-1.82139 -0.15332,-0.40325 -0.24556,-10.4856 -0.24556,-26.84079 V 84.53262 l 1.11028,-1.08965 1.11027,-1.08965 7.91797,-0.132563 c 8.66078,-0.144999 10.99693,0.04059 11.96558,0.950596 1.26215,1.18573 1.25568,1.037103 1.25568,28.842597 v 25.945 l -1.15564,1.15561 -1.15564,1.15562 -9.19842,0.14755 -9.19842,0.14755 z"
         style="fill:#008000;fill-opacity:1;stroke-width:0.348383;stroke-miterlimit:4;stroke-dasharray:none;stroke-dashoffset:0" />
      <path
         style="fill:#f9f9f9;stroke-width:0.348383"
         d="M 26.105615,41.243438 V 26.848764 H 85.578346 145.05108 V 41.243438 55.638111 H 85.578346 26.105615 Z m 102.543425,9.943839 c 2.81212,-1.530548 4.26835,-4.750365 4.27647,-9.455517 0.009,-5.460683 -1.78718,-9.118023 -5.22638,-10.639347 -2.96918,-1.313408 -6.44575,0.235786 -8.18653,3.647999 -1.14804,2.250355 -1.61204,5.548055 -1.22339,8.694797 0.31685,2.565378 0.77102,3.89141 1.88742,5.510642 2.08142,3.018894 5.42076,3.902338 8.47241,2.241426 z m -82.592912,0.03142 c 0,-0.726411 -0.85135,-0.904358 -1.109403,-0.231884 -0.265775,0.692599 -0.17128,0.863229 0.478057,0.863229 0.505077,0 0.631346,-0.126269 0.631346,-0.631345 z m 20.103801,0.231884 c -0.08431,-0.219704 -0.153289,-0.50381 -0.153289,-0.631346 0,-0.127536 -0.227284,-0.231883 -0.505076,-0.231883 -0.277792,0 -0.505076,0.104347 -0.505076,0.231883 0,0.127536 -0.06898,0.411642 -0.153288,0.631346 -0.120183,0.313193 0.022,0.399461 0.658364,0.399461 0.636366,0 0.778547,-0.08627 0.658365,-0.399461 z m 20.004192,-0.16875 c -0.05186,-0.365159 -0.28375,-0.597048 -0.64891,-0.648909 -0.462771,-0.06572 -0.56821,0.03972 -0.56821,0.568211 0,0.528495 0.120415,0.648909 0.648909,0.648909 0.528497,0 0.633934,-0.105439 0.568211,-0.568211 z m 19.996079,-0.0807 c 0,-0.528496 -0.10544,-0.633935 -0.56821,-0.568211 -0.36516,0.05186 -0.59705,0.28375 -0.64891,0.648909 -0.0657,0.462772 0.0397,0.568211 0.56821,0.568211 0.5285,0 0.64891,-0.120414 0.64891,-0.648909 z M 44.172099,51.060896 c 0.106853,-0.336666 0.04262,-0.617511 -0.172386,-0.753747 -0.508756,-0.322362 -0.676297,-0.276143 -0.966827,0.266716 -0.20671,0.386241 -0.168023,0.546959 0.180518,0.749936 0.639479,0.372407 0.768264,0.33709 0.958695,-0.262905 z m 3.742324,0.389107 c 0.302968,-0.11626 0.328452,-0.270235 0.120328,-0.727018 -0.307099,-0.674009 -1.221009,-0.595968 -1.221009,0.104266 0,0.714941 0.347734,0.911684 1.100681,0.622752 z M 64.12261,51.060896 c 0.106854,-0.336666 0.04262,-0.617511 -0.172385,-0.753747 -0.508756,-0.322362 -0.676297,-0.276143 -0.966827,0.266716 -0.206708,0.386241 -0.168021,0.546959 0.180519,0.749936 0.639477,0.372407 0.768264,0.33709 0.958693,-0.262905 z m 3.867276,0.312316 c 0.267336,-0.169404 0.278774,-0.334217 0.05253,-0.756958 -0.23555,-0.440127 -0.380969,-0.491298 -0.783689,-0.275769 -0.552682,0.295786 -0.554756,0.300999 -0.341184,0.857555 0.16969,0.442209 0.552296,0.50471 1.072343,0.175172 z m 16.1995,-0.380037 c 0,-0.679641 -0.733333,-1.101639 -1.04923,-0.603784 -0.29999,0.472787 -0.258498,0.895309 0.102212,1.040859 0.671906,0.27112 0.947018,0.144148 0.947018,-0.437075 z m 3.715442,0.40202 c 0.273749,-0.173965 0.187265,-1.312923 -0.09969,-1.312923 -0.509531,0 -1.026027,0.570294 -0.911865,1.006848 0.138676,0.530303 0.490975,0.6369 1.011559,0.306075 z m 16.235072,-0.02958 c 0,-0.127536 0.0632,-0.396706 0.14055,-0.598156 0.17902,-0.466525 -0.92326,-0.796971 -1.20094,-0.360021 -0.32075,0.504733 -0.22905,0.893498 0.23964,1.01598 0.72958,0.19066 0.82075,0.184239 0.82075,-0.0578 z m 3.64115,0.0786 c 0.43742,-0.167855 0.50513,-0.551863 0.186,-1.054822 -0.3159,-0.497855 -1.04923,-0.07586 -1.04923,0.603784 0,0.62336 0.17537,0.714993 0.86323,0.451038 z M 49.787436,50.259281 c 0.538927,-0.417407 -0.362537,-1.245009 -0.953871,-0.875715 -0.366071,0.228616 -0.402433,0.394083 -0.189366,0.861715 0.253372,0.55609 0.440371,0.55838 1.143237,0.014 z m 19.844718,-0.722184 c -0.318615,-0.352066 -0.500869,-0.395401 -0.759658,-0.180625 -0.42019,0.348727 -0.435257,0.782539 -0.04088,1.176921 0.231103,0.231105 0.404774,0.204413 0.759658,-0.116752 0.429497,-0.388689 0.432211,-0.447122 0.04088,-0.879544 z m -27.223416,0.609026 c 0.56129,-0.76761 -0.414652,-1.456632 -1.096879,-0.774406 -0.231105,0.231105 -0.204836,0.404308 0.114902,0.757615 0.511757,0.565486 0.579909,0.566651 0.981977,0.01679 z m 19.950512,0 c 0.360023,-0.49236 0.05765,-1.074003 -0.558337,-1.074003 -0.50277,0 -0.707897,0.693084 -0.33729,1.139637 0.398185,0.479782 0.502395,0.472145 0.895627,-0.06563 z m 20.072887,0.04974 c 0.268393,-0.323393 0.251811,-0.464574 -0.09534,-0.81173 -0.391972,-0.391972 -0.448526,-0.391972 -0.840498,0 -0.347156,0.347156 -0.363738,0.488337 -0.09535,0.81173 0.178696,0.215315 0.410713,0.391482 0.515595,0.391482 0.104882,0 0.336898,-0.176167 0.515594,-0.391482 z m 7.323606,0 c 0.268393,-0.323393 0.251811,-0.464574 -0.09534,-0.81173 -0.37802,-0.37802 -0.459246,-0.381251 -0.808335,-0.03216 -0.426256,0.426255 -0.257333,1.235373 0.257913,1.235373 0.176478,0 0.467071,-0.176167 0.645767,-0.391482 z m 12.868927,-0.496305 c 0,-0.524639 -0.81117,-0.682702 -1.24439,-0.24248 -0.3614,0.367233 -0.35355,0.435814 0.0872,0.762614 0.52236,0.387269 1.15714,0.101936 1.15714,-0.520134 z m 7.08159,0.496305 c 0.26839,-0.323393 0.25181,-0.464574 -0.0953,-0.81173 -0.39197,-0.391972 -0.44853,-0.391972 -0.8405,0 -0.34715,0.347156 -0.36374,0.488337 -0.0953,0.81173 0.17869,0.215315 0.41071,0.391482 0.51559,0.391482 0.10488,0 0.3369,-0.176167 0.5156,-0.391482 z M 71.027838,48.038351 c -0.903601,-0.572284 -1.708321,0.314265 -0.852975,0.93971 0.400783,0.29306 0.51139,0.267772 0.832217,-0.190271 0.313188,-0.44714 0.316377,-0.562214 0.02076,-0.749439 z m -30.025142,0.658178 c 0.613868,-0.739666 -0.132081,-1.446646 -0.967625,-0.917078 -0.282701,0.179176 -0.283097,0.30426 -0.0024,0.753748 0.398597,0.638256 0.554124,0.664444 0.970012,0.16333 z m 10.095118,-0.112528 c 0.213895,-0.399663 0.165132,-0.51862 -0.269073,-0.656432 -0.633408,-0.201035 -1.111519,0.196856 -0.899731,0.748769 0.209869,0.546909 0.853922,0.496028 1.168804,-0.09234 z m 10.335992,-0.191933 c 0.201364,-0.132771 -0.551846,-0.835177 -0.895583,-0.835177 -0.504294,0 -0.707451,0.693621 -0.334707,1.142752 0.253142,0.305017 0.39377,0.318296 0.722734,0.06824 0.22464,-0.170754 0.453041,-0.339872 0.507556,-0.375819 z m 19.977661,-0.05553 c 0,-0.395033 -0.690692,-0.78948 -1.104413,-0.63072 -0.480464,0.184371 -0.532158,0.638864 -0.119589,1.051432 0.307455,0.307455 1.224002,-0.0076 1.224002,-0.420712 z m 9.709444,0.300298 c 0.105478,-0.274871 2e-4,-0.557271 -0.285683,-0.766312 -0.382649,-0.279801 -0.501367,-0.264496 -0.76708,0.09889 -0.231267,0.316277 -0.240568,0.518841 -0.03518,0.766313 0.38682,0.46609 0.888646,0.420477 1.087946,-0.09889 z m 9.961969,0.08848 c 0.32795,-0.39516 0.11752,-1.170373 -0.31613,-1.164563 -0.68923,0.0092 -0.979798,0.422681 -0.68465,0.974169 0.33398,0.624047 0.59903,0.674472 1.00078,0.190394 z m 9.98854,-0.08848 c 0.10548,-0.274871 2e-4,-0.557271 -0.28568,-0.766312 -0.38265,-0.279801 -0.50137,-0.264496 -0.76708,0.09889 -0.23127,0.316277 -0.24057,0.518841 -0.0352,0.766313 0.38682,0.46609 0.88864,0.420477 1.08794,-0.09889 z m -59.106844,-1.73408 c 0.203919,-0.531407 -0.02314,-0.861094 -0.593033,-0.861094 -0.569528,0 -0.907637,0.766852 -0.46261,1.04923 0.50365,0.319574 0.887033,0.251248 1.055643,-0.188136 z m 19.850442,0.295982 c 0,-0.05809 0.06563,-0.276657 0.145855,-0.485708 0.08845,-0.230487 -0.06225,-0.491469 -0.382857,-0.663053 -0.452688,-0.242271 -0.55987,-0.199664 -0.745407,0.296305 -0.140608,0.37587 -0.117019,0.64441 0.06718,0.7648 0.307364,0.200885 0.915226,0.259104 0.915226,0.08766 z m 8.536412,-0.745473 c -0.09202,-0.641739 -0.900119,-0.862197 -1.114319,-0.303998 -0.251359,0.65503 0.06838,1.130205 0.65693,0.976295 0.367574,-0.09612 0.50999,-0.305453 0.457389,-0.672297 z m 11.616754,0.169746 c 0.108241,-0.730494 -0.881865,-0.973672 -1.104778,-0.271343 -0.09818,0.309352 -0.02698,0.596173 0.18062,0.72757 0.489982,0.310126 0.835909,0.139353 0.924158,-0.456227 z m 8.383646,-0.113652 c 0,-0.565759 -0.675174,-0.903694 -1.052216,-0.526651 -0.143358,0.143357 -0.188588,0.487701 -0.10051,0.765207 0.205687,0.648067 1.152726,0.452078 1.152726,-0.238556 z m 11.61675,0.56311 c 0,-0.127536 0.0634,-0.397133 0.14092,-0.599105 0.0949,-0.247365 -0.0681,-0.40718 -0.49951,-0.489647 -0.48053,-0.09186 -0.6801,0.0025 -0.79929,0.378096 -0.0948,0.298629 -0.0206,0.588107 0.18384,0.717663 0.45293,0.286992 0.97404,0.283244 0.97404,-0.007 z M 40.359935,46.822066 c 0.244054,-0.394888 -0.144714,-1.032942 -0.629375,-1.032942 -0.569898,0 -0.796952,0.329687 -0.593032,0.861094 0.165974,0.432519 0.989732,0.548324 1.222407,0.171848 z m 20.003847,-0.149059 c 0.153323,-0.491308 -0.347616,-0.940276 -0.865665,-0.775854 -0.702329,0.222911 -0.45915,1.213017 0.271342,1.104778 0.283532,-0.04201 0.550977,-0.190028 0.594323,-0.328924 z m -20.44172,-1.747033 c 0.02922,-0.02353 -0.01328,-0.296709 -0.09444,-0.607055 -0.114457,-0.437684 -0.268001,-0.527312 -0.684463,-0.399541 -0.695907,0.213505 -0.665734,0.163911 -0.495583,0.814569 0.114457,0.437684 0.268001,0.527312 0.684464,0.399541 0.295297,-0.0906 0.560808,-0.183979 0.590022,-0.207514 z m 12.54759,-0.04352 c 0.08476,-0.220878 0.09021,-0.504984 0.01212,-0.631345 -0.18552,-0.300166 -1.122345,-0.298384 -1.122345,0.0021 0,0.127536 -0.06898,0.411641 -0.153288,0.631345 -0.114587,0.298611 0.0061,0.399462 0.478057,0.399462 0.34724,0 0.700695,-0.180719 0.785454,-0.401597 z m 7.24419,0.149059 c 0.127534,0 0.230143,-0.142053 0.228017,-0.315673 -0.0073,-0.593826 -0.392826,-0.928076 -0.913474,-0.791924 -0.39626,0.103625 -0.491871,0.285646 -0.400664,0.762766 0.0803,0.420051 0.240868,0.580202 0.487015,0.485747 0.201972,-0.0775 0.471569,-0.140916 0.599106,-0.140916 z m 12.732521,-0.378808 c 0,-0.331513 -0.195258,-0.532807 -0.568211,-0.585775 -0.466105,-0.0662 -0.568211,0.03907 -0.568211,0.585775 0,0.546711 0.102106,0.651973 0.568211,0.585775 0.372953,-0.05297 0.568211,-0.254261 0.568211,-0.585775 z m 7.050413,0.478058 c 0.385704,-0.148008 0.547409,-0.877278 0.258571,-1.166116 -0.346947,-0.346944 -1.1218,0.148659 -1.1218,0.717512 0,0.62102 0.175817,0.712389 0.863229,0.448604 z m 13.026369,-0.478058 c 0,-0.505076 -0.126269,-0.631345 -0.631346,-0.631345 -0.505076,0 -0.631345,0.126269 -0.631345,0.631345 0,0.505077 0.126269,0.631346 0.631345,0.631346 0.505077,0 0.631346,-0.126269 0.631346,-0.631346 z m 6.924143,0.478058 c 0.385704,-0.148008 0.547409,-0.877278 0.258571,-1.166116 -0.07749,-0.07749 -0.361596,-0.08318 -0.631345,-0.01264 -0.474148,0.123993 -0.666574,0.819201 -0.322095,1.163681 0.204976,0.204976 0.200253,0.204873 0.694869,0.01507 z m 13.026372,-0.495622 c 0,-0.528495 -0.10544,-0.633935 -0.56821,-0.568211 -0.36516,0.05186 -0.59705,0.283751 -0.64891,0.64891 -0.0657,0.462771 0.0397,0.568211 0.56821,0.568211 0.52849,0 0.64891,-0.120415 0.64891,-0.64891 z M 39.487148,43.011204 c 0.114533,0 0.148805,-0.227284 0.07616,-0.505076 -0.08259,-0.315843 -0.344466,-0.505076 -0.698952,-0.505076 -0.471916,0 -0.546186,0.108209 -0.443382,0.645992 0.08334,0.435989 0.242868,0.600183 0.490711,0.505076 0.201972,-0.0775 0.46093,-0.140916 0.575463,-0.140916 z M 52.691469,42.77329 c 0.151336,-0.578714 0.0042,-0.772238 -0.587076,-0.772238 -0.261907,0 -0.481327,0.249947 -0.554235,0.631345 -0.09974,0.521772 -0.0223,0.631346 0.446182,0.631346 0.348851,0 0.616198,-0.188629 0.695129,-0.490453 z m 6.769835,0.237914 c 0.127534,0 0.231883,-0.227284 0.231883,-0.505076 0,-0.370389 -0.16836,-0.505076 -0.631345,-0.505076 -0.511986,0 -0.631346,0.124468 -0.631346,0.658364 0,0.496589 0.09816,0.620698 0.399463,0.505076 0.219703,-0.08431 0.503808,-0.153288 0.631345,-0.153288 z M 72.7796,42.695532 c -0.05186,-0.365159 -0.28375,-0.597049 -0.64891,-0.64891 -0.462771,-0.06572 -0.568211,0.03972 -0.568211,0.568211 0,0.528495 0.120416,0.64891 0.64891,0.64891 0.528496,0 0.633934,-0.10544 0.568211,-0.568211 z m 6.818529,-0.126269 c 0.06572,-0.462772 -0.03971,-0.568211 -0.568211,-0.568211 -0.528494,0 -0.648909,0.120414 -0.648909,0.64891 0,0.528495 0.10544,0.633934 0.568211,0.56821 0.36516,-0.05186 0.597048,-0.28375 0.648909,-0.648909 z m 13.177554,0.06313 c 0,-0.505076 -0.126269,-0.631345 -0.631346,-0.631345 -0.505076,0 -0.631345,0.126269 -0.631345,0.631345 0,0.505077 0.126269,0.631346 0.631345,0.631346 0.505077,0 0.631346,-0.126269 0.631346,-0.631346 z m 6.772959,-0.06313 c 0.06572,-0.462772 -0.03971,-0.568211 -0.568211,-0.568211 -0.528494,0 -0.648909,0.120414 -0.648909,0.64891 0,0.528495 0.105439,0.633934 0.56821,0.56821 0.365161,-0.05186 0.597049,-0.28375 0.64891,-0.648909 z m 13.177558,0.06313 c 0,-0.505076 -0.12627,-0.631345 -0.63135,-0.631345 -0.50508,0 -0.63135,0.126269 -0.63135,0.631345 0,0.505077 0.12627,0.631346 0.63135,0.631346 0.50508,0 0.63135,-0.126269 0.63135,-0.631346 z M 39.490136,40.612092 c 0,-0.456587 -0.13568,-0.631345 -0.490172,-0.631345 -0.269595,0 -0.56377,0.119084 -0.653723,0.264631 -0.270526,0.43772 0.08368,0.99806 0.630893,0.99806 0.378844,0 0.513002,-0.165108 0.513002,-0.631346 z m 13.380655,0.315673 c -0.0071,-0.579484 -0.410392,-0.966016 -0.837073,-0.802284 -0.689555,0.264607 -0.529567,1.117957 0.209594,1.117957 0.34724,0 0.629605,-0.142053 0.627479,-0.315673 z m 6.776826,-0.378807 c 0.06572,-0.462772 -0.03971,-0.568211 -0.568211,-0.568211 -0.528494,0 -0.64891,0.120414 -0.64891,0.648909 0,0.528496 0.10544,0.633935 0.568211,0.568211 0.36516,-0.05186 0.597048,-0.28375 0.64891,-0.648909 z m 13.177553,0.204307 c 0,-0.595025 -0.322029,-0.826909 -0.861094,-0.62005 -0.674108,0.25868 -0.497892,1.110223 0.229749,1.110223 0.456589,0 0.631345,-0.135681 0.631345,-0.490173 z m 6.81853,-0.141173 c 0,-0.505076 -0.126269,-0.631345 -0.631346,-0.631345 -0.505076,0 -0.631345,0.126269 -0.631345,0.631345 0,0.505076 0.126269,0.631346 0.631345,0.631346 0.505077,0 0.631346,-0.12627 0.631346,-0.631346 z m 13.131983,0 c 0,-0.505076 -0.126269,-0.631345 -0.631346,-0.631345 -0.505076,0 -0.631345,0.126269 -0.631345,0.631345 0,0.505076 0.126269,0.631346 0.631345,0.631346 0.505077,0 0.631346,-0.12627 0.631346,-0.631346 z m 6.818529,0 c 0,-0.505076 -0.126269,-0.631345 -0.631345,-0.631345 -0.505076,0 -0.631345,0.126269 -0.631345,0.631345 0,0.505076 0.126269,0.631346 0.631345,0.631346 0.505076,0 0.631345,-0.12627 0.631345,-0.631346 z m 13.131988,0 c 0,-0.505076 -0.12627,-0.631345 -0.63135,-0.631345 -0.50508,0 -0.63135,0.126269 -0.63135,0.631345 0,0.505076 0.12627,0.631346 0.63135,0.631346 0.50508,0 0.63135,-0.12627 0.63135,-0.631346 z M 52.222657,39.322383 c 0.385704,-0.148008 0.547409,-0.877278 0.258571,-1.166116 -0.346947,-0.346945 -1.121799,0.148659 -1.121799,0.717512 0,0.62102 0.175817,0.712389 0.863228,0.448604 z m 19.950513,0 c 0.219705,-0.08431 0.399462,-0.437394 0.399462,-0.784633 0,-0.471951 -0.100851,-0.592645 -0.399462,-0.478058 -0.219703,0.08431 -0.503809,0.153288 -0.631346,0.153288 -0.127534,0 -0.231883,0.284105 -0.231883,0.631345 0,0.649338 0.17063,0.743833 0.863229,0.478058 z M 39.742674,38.591787 c 0,-0.505076 -0.126269,-0.631345 -0.631345,-0.631345 -0.443855,0 -0.631345,0.137493 -0.631345,0.462986 0,0.254643 0.07576,0.538748 0.168359,0.631346 0.0926,0.0926 0.376702,0.168358 0.631345,0.168358 0.325494,0 0.462986,-0.18749 0.462986,-0.631345 z m 19.950513,0 c 0,-0.456588 -0.135681,-0.631345 -0.490171,-0.631345 -0.269595,0 -0.563772,0.119084 -0.653726,0.264631 -0.270524,0.43772 0.08368,0.998059 0.630896,0.998059 0.378843,0 0.513001,-0.165107 0.513001,-0.631345 z M 79.6437,38.991249 c 0,-0.127536 0.06898,-0.411642 0.153288,-0.631346 0.114491,-0.298356 -0.0059,-0.399461 -0.475623,-0.399461 -0.593949,0 -1.101538,0.764792 -0.74453,1.121798 0.230938,0.230938 1.066865,0.159643 1.066865,-0.09099 z m 12.879445,-0.399462 c 0,-0.647734 -0.361122,-0.794716 -0.983818,-0.400427 -0.486116,0.307807 -0.155758,1.031772 0.470817,1.031772 0.378842,0 0.513001,-0.165107 0.513001,-0.631345 z m 7.170317,0.231884 c 0.265777,-0.692599 0.171282,-0.863229 -0.478057,-0.863229 -0.505076,0 -0.631345,0.126269 -0.631345,0.631345 0,0.726411 0.851351,0.904358 1.109402,0.231884 z m 12.842008,-0.231884 c -0.12383,-0.647739 -0.44635,-0.780214 -1.01738,-0.417884 -0.48529,0.307923 -0.0834,1.049229 0.56876,1.049229 0.47108,0 0.54848,-0.108924 0.44862,-0.631345 z M 52.074692,36.85743 c 0.132229,-0.68662 -0.286098,-0.975859 -0.833004,-0.575951 -0.298675,0.218397 -0.408829,0.50108 -0.302862,0.777225 0.212584,0.553988 1.017896,0.411288 1.135866,-0.201274 z m 19.897937,0.404665 c 0.184201,-0.12039 0.207791,-0.388931 0.06718,-0.7648 -0.182497,-0.487845 -0.297046,-0.536262 -0.725823,-0.306787 -0.568263,0.304125 -0.569791,0.307841 -0.355836,0.865396 0.164044,0.42749 0.554463,0.506843 1.014476,0.206191 z m 20.224827,-0.164803 c 0.02921,-0.02353 -0.01328,-0.296709 -0.09444,-0.607055 -0.114456,-0.437684 -0.268001,-0.527312 -0.684462,-0.399541 -0.723186,0.221874 -0.733932,0.238823 -0.539596,0.851115 0.129916,0.409333 0.298111,0.495235 0.717537,0.366467 0.301313,-0.09251 0.571746,-0.187451 0.600961,-0.210986 z m 19.735014,0.133197 c 0.21783,-0.138023 0.27942,-0.41651 0.16904,-0.764301 -0.13374,-0.421385 -0.29959,-0.508496 -0.72151,-0.378963 -0.70809,0.217392 -0.67669,0.167306 -0.50837,0.810958 0.15349,0.586957 0.49173,0.692909 1.06084,0.332306 z M 40.121482,36.571482 c 0,-0.752093 -0.985807,-0.676954 -1.093501,0.08335 -0.06935,0.489624 0.01545,0.574429 0.505077,0.505076 0.392282,-0.05557 0.588424,-0.251707 0.588424,-0.588424 z m 20.031211,0.06313 c -0.05297,-0.372953 -0.254261,-0.568211 -0.585775,-0.568211 -0.331514,0 -0.532807,0.195258 -0.585775,0.568211 -0.0662,0.466104 0.03906,0.56821 0.585775,0.56821 0.54671,0 0.651973,-0.102106 0.585775,-0.56821 z m 20.066958,0.07192 c 0.159564,-0.610169 -0.770767,-1.011063 -1.108688,-0.477751 -0.383504,0.605249 -0.240757,0.974042 0.377014,0.974042 0.385954,0 0.648452,-0.178051 0.731674,-0.496291 z m 19.987439,0.07454 c 0.1606,-0.418503 -0.220178,-0.829636 -0.775262,-0.837072 -0.343763,-0.0046 -0.656483,0.702867 -0.454877,1.029075 0.237664,0.384546 1.058029,0.256501 1.230139,-0.192003 z M 51.193589,35.368954 c 0.368731,-0.269623 0.384846,-0.388292 0.104741,-0.771359 -0.396298,-0.541971 -1.201592,-0.329308 -1.201592,0.317318 0,0.793144 0.404251,0.960483 1.096851,0.454041 z m 19.950513,0 c 0.388689,-0.284216 0.395571,-0.372896 0.0637,-0.820749 -0.338654,-0.457007 -0.408314,-0.466438 -0.775593,-0.104998 -0.231757,0.228073 -0.334322,0.577433 -0.240954,0.820748 0.194608,0.507136 0.375613,0.527082 0.952844,0.104999 z m 19.883625,0.0555 c 0.394967,-0.211379 0.439629,-0.36041 0.227052,-0.757614 -0.29206,-0.545722 -0.459162,-0.592243 -0.968367,-0.269596 -0.215009,0.136235 -0.279239,0.41708 -0.172385,0.753747 0.195376,0.615581 0.246088,0.630759 0.9137,0.273463 z M 111.4635,35.068023 c 0,-0.368714 -0.35761,-0.895653 -0.60785,-0.895653 -0.56933,0 -0.90056,0.55102 -0.63241,1.052051 0.20042,0.374491 0.35146,0.416002 0.74579,0.204965 0.27196,-0.145549 0.49447,-0.308162 0.49447,-0.361363 z m -70.548225,-0.01499 c 0.147774,-0.385094 -0.302086,-1.133205 -0.681428,-1.133205 -0.283024,0 -0.558804,0.948952 -0.3663,1.26043 0.237345,0.384033 0.881558,0.305806 1.047728,-0.127225 z m 20.01401,-0.07336 c 0.318802,-0.595687 -0.65504,-1.333075 -1.013539,-0.767445 -0.308508,0.486759 -0.271301,0.908536 0.09311,1.055581 0.544017,0.219516 0.669814,0.180136 0.920425,-0.288136 z m 19.977105,0.349773 c 0,-0.05809 0.06564,-0.276657 0.145856,-0.485709 0.08777,-0.228722 -0.05887,-0.489658 -0.368203,-0.65521 -0.42663,-0.228326 -0.563248,-0.183207 -0.803276,0.265287 -0.226244,0.42274 -0.214806,0.587553 0.05253,0.756957 0.35671,0.226036 0.973092,0.301208 0.973093,0.118675 z m 19.95051,0 c 0,-0.05809 0.0656,-0.276657 0.14586,-0.485709 0.0878,-0.228722 -0.0589,-0.489658 -0.3682,-0.65521 -0.42663,-0.228326 -0.56325,-0.183207 -0.80328,0.265287 -0.226244,0.42274 -0.214806,0.587553 0.05253,0.756957 0.35671,0.226036 0.97309,0.301208 0.97309,0.118675 z M 50.349276,33.436792 c 0,-0.117002 -0.176167,-0.358936 -0.391481,-0.537632 -0.322941,-0.268016 -0.462841,-0.253542 -0.799056,0.08267 -0.571759,0.571759 -0.0048,1.307411 0.711979,0.923807 0.263207,-0.140865 0.478558,-0.351846 0.478558,-0.468848 z m 19.708493,0.344096 c 0.268392,-0.323393 0.251811,-0.464573 -0.09535,-0.81173 -0.391972,-0.391972 -0.448525,-0.391972 -0.840497,0 -0.347157,0.347157 -0.363739,0.488337 -0.09535,0.81173 0.178696,0.215315 0.410713,0.391482 0.515594,0.391482 0.104882,0 0.336899,-0.176167 0.515595,-0.391482 z m 20.192532,-0.470365 c 0,-0.18645 -0.182761,-0.490678 -0.406134,-0.676062 -0.344394,-0.28582 -0.457273,-0.267128 -0.74251,0.122959 -0.47586,0.650777 0.03516,1.488022 0.693257,1.135819 0.250463,-0.134044 0.455387,-0.396266 0.455387,-0.582716 z m 19.950509,-0.0025 c 0,-0.163557 -0.13482,-0.432196 -0.29959,-0.596975 -0.23111,-0.231105 -0.40478,-0.204413 -0.75966,0.116752 -0.4295,0.388689 -0.43221,0.447122 -0.0409,0.879544 0.31862,0.352066 0.50087,0.395401 0.75966,0.180625 0.18726,-0.155414 0.34047,-0.416389 0.34047,-0.579947 z M 42.026037,33.52835 c 0.268392,-0.323393 0.251809,-0.464573 -0.09535,-0.81173 -0.391971,-0.391972 -0.448524,-0.391972 -0.840496,0 -0.347156,0.347157 -0.363739,0.488337 -0.09535,0.81173 0.178696,0.215315 0.410714,0.391482 0.515595,0.391482 0.104882,0 0.3369,-0.176167 0.515596,-0.391482 z m 19.913429,0.04468 c 0.338919,-0.408373 0.112326,-1.16843 -0.348339,-1.16843 -0.176478,0 -0.462339,0.170463 -0.635249,0.378807 -0.250819,0.302216 -0.250819,0.455398 0,0.757614 0.389643,0.469493 0.614438,0.476808 0.983588,0.03201 z m 20.194414,0.01041 c 0.206647,-0.248996 0.187802,-0.461359 -0.07254,-0.817396 -0.344533,-0.471178 -0.362456,-0.471288 -0.877252,-0.0054 -0.494677,0.447677 -0.499725,0.495199 -0.08594,0.809365 0.559056,0.424468 0.693162,0.426207 1.035735,0.01343 z m 19.99623,-0.05509 c 0.26839,-0.323393 0.25181,-0.464574 -0.0953,-0.81173 -0.39198,-0.391972 -0.44853,-0.391972 -0.8405,0 -0.34716,0.347156 -0.36374,0.488337 -0.0953,0.81173 0.1787,0.215314 0.41072,0.391481 0.5156,0.391481 0.10488,0 0.3369,-0.176167 0.51559,-0.391482 z M 48.560804,32.44329 c 0.266355,-0.497689 -0.06687,-1.048841 -0.634129,-1.048841 -0.444628,0 -0.660808,0.768329 -0.328753,1.168431 0.39018,0.470139 0.665574,0.435935 0.962882,-0.11959 z m 19.988406,-0.0708 c 0.295148,-0.551489 0.0046,-0.964936 -0.684649,-0.97417 -0.520062,-0.007 -0.650596,0.846307 -0.181901,1.189027 0.560597,0.409918 0.527833,0.418041 0.86655,-0.214857 z m 19.950512,0 c 0.295149,-0.551489 0.0046,-0.964936 -0.684648,-0.97417 -0.520062,-0.007 -0.650597,0.846307 -0.181901,1.189027 0.560597,0.409918 0.527832,0.418041 0.866549,-0.214857 z m 19.950508,0 c 0.29515,-0.551489 0.005,-0.964936 -0.68464,-0.97417 -0.52007,-0.007 -0.6506,0.846307 -0.1819,1.189027 0.56059,0.409918 0.52783,0.418041 0.86654,-0.214857 z m -64.791818,0.02986 c 0.08661,-0.140139 0.0873,-0.475889 0.0015,-0.74611 -0.132778,-0.418347 -0.246183,-0.450193 -0.763617,-0.214434 -0.492169,0.224247 -0.559946,0.366072 -0.356555,0.74611 0.272405,0.508995 0.866234,0.622827 1.118635,0.214434 z m 19.980459,0.06153 c 0.184201,-0.12039 0.207791,-0.38893 0.06718,-0.764799 -0.182496,-0.487846 -0.297045,-0.536262 -0.725822,-0.306788 -0.568264,0.304126 -0.569792,0.307841 -0.355836,0.865396 0.164043,0.427491 0.554462,0.506843 1.014476,0.206191 z M 83.64725,32.43286 c 0.267337,-0.169404 0.278774,-0.334217 0.05253,-0.756958 -0.23555,-0.440127 -0.380969,-0.491298 -0.783689,-0.275769 -0.552682,0.295786 -0.554755,0.300998 -0.341184,0.857554 0.169691,0.44221 0.552296,0.504711 1.072343,0.175173 z m 19.91494,0.02198 c 0.30759,-0.19547 0.17048,-1.312923 -0.16109,-1.312923 -0.0961,0 -0.39112,0.158166 -0.65549,0.351479 -0.40841,0.298632 -0.43,0.412546 -0.14362,0.757615 0.3773,0.454616 0.51842,0.484574 0.9602,0.203829 z M 46.620472,31.773257 c 0.369242,-0.502584 0.178532,-0.846989 -0.558669,-1.008906 -1.111952,-0.244225 -1.722789,0.02361 -1.593718,0.698799 0.08802,0.460462 0.276392,0.562646 1.037203,0.562646 0.511306,0 1.013138,-0.113643 1.115184,-0.252539 z m 20.095371,-0.298901 c 0.09085,-0.631996 -0.654589,-0.969364 -1.611312,-0.729242 -0.419996,0.105412 -0.613076,0.331345 -0.612986,0.717282 1.19e-4,0.495204 0.130032,0.562804 1.073288,0.55848 0.902839,-0.0041 1.085509,-0.09087 1.15101,-0.54652 z m 19.952185,-0.03321 c 0.05835,-0.391729 -0.08812,-0.576002 -0.549985,-0.691922 -0.864782,-0.217046 -1.676119,0.08314 -1.676119,0.620151 0,0.617395 0.07924,0.659838 1.178227,0.631056 0.782371,-0.02049 0.983621,-0.127905 1.047877,-0.559285 z m 19.997252,0.03355 c 0,-0.398907 -0.18829,-0.622961 -0.61312,-0.729587 -0.85011,-0.213366 -1.65972,0.09115 -1.65972,0.624265 0,0.615101 0.0737,0.654743 1.24329,0.668721 0.90689,0.01084 1.02955,-0.05628 1.02955,-0.563399 z"
         id="path868"
         transform="matrix(0.26458333,0,0,0.26458333,65.998778,85.645199)" />
      <path
         transform="matrix(0.26458333,0,0,0.26458333,65.998778,85.645199)"
         id="path869"
         d="m 124.37211,50.198234 c -3.08691,-0.934709 -4.78724,-4.666225 -4.51362,-9.905518 0.16253,-3.112161 0.85117,-5.025725 2.34689,-6.521447 3.58263,-3.582628 8.16007,-0.6646 9.00534,5.740719 0.89437,6.777429 -2.45625,12.013216 -6.83861,10.686246 z"
         style="fill:#f9f9f9;stroke-width:0.348383" />
      <path
         id="path871"
         d="m 97.906219,96.567076 h 1.06803 c 0.390921,0.344252 0.778979,0.261403 1.222051,0.261403 0.0719,0 0.14385,0 0.21578,0 0.018,0 0.0697,0.01115 0.0539,0 -0.13733,-0.09707 -0.28249,-0.174267 -0.42374,-0.261402"
         style="fill:none;stroke:#000000;stroke-width:0.243038px;stroke-linecap:butt;stroke-linejoin:miter;stroke-opacity:1" />
    </g>
  </g>
</svg>
