<?xml version="1.0" standalone="no"?>
<!DOCTYPE svg PUBLIC "-//W3C//DTD SVG 20010904//EN"
 "http://www.w3.org/TR/2001/REC-SVG-20010904/DTD/svg10.dtd">
<svg version="1.0" xmlns="http://www.w3.org/2000/svg"
 width="700.000000pt" height="700.000000pt" viewBox="0 0 700.000000 700.000000"
 preserveAspectRatio="xMidYMid meet">
<metadata>
Created by potrace 1.11, written by Peter Selinger 2001-2013
</metadata>
<g transform="translate(0.000000,700.000000) scale(0.100000,-0.100000)"
fill="#000000" stroke="none">
<path d="M895 6984 c-234 -41 -445 -145 -589 -290 -143 -143 -234 -328 -283
-569 -17 -86 -18 -216 -18 -2635 0 -2057 3 -2557 13 -2610 52 -256 148 -439
314 -596 135 -126 298 -207 518 -256 l105 -23 2550 0 c2061 0 2562 3 2615 13
251 51 437 148 588 306 116 122 187 248 237 421 58 200 56 93 52 2830 -3 2764
2 2530 -62 2721 -110 327 -345 552 -678 648 -201 58 -83 56 -2795 55 -2091 -1
-2500 -3 -2567 -15z m5180 -49 c441 -64 734 -322 840 -740 32 -126 42 -274 35
-510 l-5 -200 -6 300 c-5 287 -6 304 -33 400 -31 114 -79 231 -128 312 -130
215 -402 382 -694 425 -135 20 -5096 19 -5204 -1 -374 -68 -641 -296 -758
-646 -58 -173 -56 -60 -62 -2800 -3 -1392 -7 -2501 -8 -2465 -1 36 -2 1167 -2
2515 0 2720 -4 2554 67 2768 92 279 285 480 557 582 96 36 224 65 320 73 45 4
1181 6 2526 5 2162 -2 2458 -5 2555 -18z m-65 -1635 l0 -650 -2495 0 -2495 0
2 518 3 517 2 -512 3 -513 2485 0 2485 0 0 640 0 640 -2407 3 -2408 2 2413 3
2412 2 0 -650z m-4960 630 c0 -5 -5 -10 -11 -10 -5 0 -7 5 -4 10 3 6 8 10 11
10 2 0 4 -4 4 -10z m4910 -625 l0 -595 -2445 0 -2445 0 0 595 0 595 2445 0
2445 0 0 -595z m-4467 -1622 c-90 -2 -236 -2 -325 0 -90 1 -17 3 162 3 179 0
252 -2 163 -3z m1440 0 c-90 -2 -236 -2 -325 0 -90 1 -17 3 162 3 179 0 252
-2 163 -3z m1435 0 c-86 -2 -230 -2 -320 0 -90 1 -19 3 157 3 176 0 249 -2
163 -3z m1440 0 c-86 -2 -230 -2 -320 0 -90 1 -19 3 157 3 176 0 249 -2 163
-3z m-4811 -9 c-3 -3 -12 -4 -19 -1 -8 3 -5 6 6 6 11 1 17 -2 13 -5z m821 -30
c33 -25 68 -81 58 -92 -3 -3 -6 0 -6 6 0 21 -64 85 -105 104 -34 17 -36 18
-10 13 17 -4 45 -18 63 -31z m1408 20 c36 -17 84 -67 84 -87 0 -6 -14 6 -32
27 -17 21 -50 47 -72 57 -23 10 -35 19 -28 19 8 0 29 -7 48 -16z m1451 -9 c38
-23 84 -85 83 -112 -1 -4 -8 6 -17 22 -24 46 -54 76 -98 96 -22 10 -34 19 -26
19 8 0 34 -11 58 -25z m630 19 c-3 -3 -12 -4 -19 -1 -8 3 -5 6 6 6 11 1 17 -2
13 -5z m-4390 -33 c-26 -17 -55 -46 -66 -68 -24 -46 -28 -35 -5 13 9 19 34 45
58 59 58 35 70 31 13 -4z m1451 9 c-20 -11 -48 -34 -62 -52 -28 -35 -36 -27
-10 10 15 22 79 61 99 61 6 0 -6 -9 -27 -19z m3779 -25 c24 -25 43 -51 43 -57
0 -7 -11 4 -24 23 -14 20 -40 46 -58 58 -18 11 -27 21 -19 21 8 0 34 -20 58
-45z m-2375 0 c-22 -20 -44 -45 -47 -56 -4 -11 -9 -18 -12 -16 -10 11 30 69
60 87 46 29 46 25 -1 -15z m1424 -15 c-20 -22 -36 -45 -36 -52 0 -6 -3 -8 -6
-5 -8 8 22 56 50 79 33 28 31 21 -8 -22z m-3451 12 l20 -14 -20 8 c-11 5 -175
11 -365 14 l-345 7 345 -1 c269 -1 349 -4 365 -14z m1400 9 c28 -6 -514 -4
-620 2 -27 2 94 4 270 4 176 0 333 -2 350 -6z m1440 0 c28 -6 -514 -4 -620 2
-27 2 94 4 270 4 176 0 333 -2 350 -6z m1440 0 c28 -6 -525 -4 -630 2 -27 2
96 4 275 4 179 0 338 -2 355 -6z m-5075 -24 c0 -2 -15 -16 -32 -33 l-33 -29
29 33 c28 30 36 37 36 29z m1440 0 c0 -2 -15 -16 -32 -33 l-33 -29 29 33 c28
30 36 37 36 29z m1420 -22 c-7 -8 -18 -15 -24 -15 -6 0 -2 7 8 15 25 19 32 19
16 0z m1440 12 c0 -2 -10 -12 -22 -23 l-23 -19 19 23 c18 21 26 27 26 19z
m907 -129 c-3 -7 -5 -2 -5 12 0 14 2 19 5 13 2 -7 2 -19 0 -25z m-4310 -10
c-3 -8 -6 -5 -6 6 -1 11 2 17 5 13 3 -3 4 -12 1 -19z m1440 -10 c-3 -8 -6 -5
-6 6 -1 11 2 17 5 13 3 -3 4 -12 1 -19z m410 -405 c-1 -60 -3 -11 -3 107 0
118 2 167 3 108 2 -60 2 -156 0 -215z m-360 -35 c-1 -62 -3 -14 -3 107 0 121
2 172 3 113 2 -59 2 -158 0 -220z m1800 -986 c-1 -240 -2 -43 -2 438 0 481 1
678 2 437 2 -240 2 -634 0 -875z m-1850 826 c-2 -13 -4 -5 -4 17 -1 22 1 32 4
23 2 -10 2 -28 0 -40z m-970 -60 c-3 -8 -6 -5 -6 6 -1 11 2 17 5 13 3 -3 4
-12 1 -19z m1487 -78 c11 -14 6 -11 -11 7 -18 18 -33 38 -33 45 0 7 6 4 12 -7
6 -11 20 -31 32 -45z m-1928 13 c-29 -53 -86 -103 -115 -103 -9 1 -4 7 14 17
43 22 82 61 96 94 6 17 14 28 16 25 2 -2 -3 -17 -11 -33z m-950 -10 c23 -31
24 -34 5 -18 -22 19 -46 55 -38 55 3 0 17 -17 33 -37z m2837 -43 c14 -16 11
-15 -10 5 -17 17 -34 41 -37 55 -6 22 -5 21 10 -5 9 -16 26 -41 37 -55z m997
65 c0 -20 -57 -83 -91 -101 -47 -24 -44 -16 7 19 26 17 55 47 63 64 18 37 21
39 21 18z m-1506 -7 c-3 -7 -17 -22 -32 -32 -27 -19 -27 -19 2 12 32 35 38 38
30 20z m57 -16 c-16 -30 -89 -92 -109 -92 -10 1 -3 8 19 20 38 20 89 73 89 92
0 6 3 9 6 6 3 -4 1 -15 -5 -26z m1389 25 c0 -2 -12 -14 -27 -28 l-28 -24 24
28 c23 25 31 32 31 24z m-3793 -83 c17 -14 17 -14 -4 -5 -24 12 -63 58 -63 74
0 6 11 -4 24 -22 13 -18 33 -39 43 -47z m913 72 c0 -2 -8 -10 -17 -17 -16 -13
-17 -12 -4 4 13 16 21 21 21 13z m494 -41 l28 -40 -31 33 c-17 18 -31 37 -31
44 0 6 1 9 3 7 2 -2 15 -22 31 -44z m56 20 c13 -14 21 -25 18 -25 -2 0 -15 11
-28 25 -13 14 -21 25 -18 25 2 0 15 -11 28 -25z m807 -91 c-3 -3 -12 -4 -19
-1 -8 3 -5 6 6 6 11 1 17 -2 13 -5z m1440 0 c-3 -3 -12 -4 -19 -1 -8 3 -5 6 6
6 11 1 17 -2 13 -5z m-3159 -11 c-81 -2 -216 -2 -300 0 -84 1 -18 3 147 3 165
0 234 -2 153 -3z m1440 0 c-81 -2 -216 -2 -300 0 -84 1 -18 3 147 3 165 0 234
-2 153 -3z m1435 0 c-84 -2 -222 -2 -305 0 -84 1 -16 3 152 3 168 0 236 -2
153 -3z m-3290 -360 c-7 -2 -21 -2 -30 0 -10 3 -4 5 12 5 17 0 24 -2 18 -5z
m644 1 c-3 -3 -12 -4 -19 -1 -8 3 -5 6 6 6 11 1 17 -2 13 -5z m796 -1 c-7 -2
-21 -2 -30 0 -10 3 -4 5 12 5 17 0 24 -2 18 -5z m644 1 c-3 -3 -12 -4 -19 -1
-8 3 -5 6 6 6 11 1 17 -2 13 -5z m796 -1 c-7 -2 -21 -2 -30 0 -10 3 -4 5 12 5
17 0 24 -2 18 -5z m644 1 c-3 -3 -12 -4 -19 -1 -8 3 -5 6 6 6 11 1 17 -2 13
-5z m-3592 -14 c-27 -12 -43 -12 -25 0 8 5 22 9 30 9 10 0 8 -3 -5 -9z m826
-13 c33 -22 79 -80 79 -100 0 -6 -13 9 -29 34 -18 30 -44 53 -72 67 -24 12
-37 22 -28 22 9 0 31 -10 50 -23z m1428 8 c30 -15 81 -70 81 -86 0 -5 -16 8
-35 30 -19 21 -50 46 -68 55 -17 8 -26 16 -19 16 7 0 26 -7 41 -15z m1459 -13
c28 -18 57 -59 66 -92 6 -22 5 -21 -10 5 -24 43 -54 74 -94 96 -25 14 -28 18
-10 13 14 -4 35 -14 48 -22z m-3801 -35 c-45 -47 -55 -51 -37 -17 9 16 65 60
77 60 2 0 -16 -19 -40 -43z m1432 -4 c-18 -21 -35 -40 -36 -42 -2 -2 -3 1 -3
8 0 14 54 71 66 71 4 0 -8 -17 -27 -37z m1444 5 c-17 -18 -36 -42 -42 -53 -11
-18 -11 -18 -6 5 4 14 20 37 36 53 41 38 50 34 12 -5z m-2045 14 c22 -7 -512
-5 -643 1 -33 2 93 4 280 4 187 1 350 -2 363 -5z m1245 1 c-89 -2 -237 -2
-330 0 -92 1 -19 3 162 3 182 0 257 -2 168 -3z m1635 -1 c22 -7 -512 -5 -643
1 -33 2 93 4 280 4 187 1 350 -2 363 -5z m-1425 -9 c-7 -2 -21 -2 -30 0 -10 3
-4 5 12 5 17 0 24 -2 18 -5z m-2223 -16 c0 -2 -15 -16 -32 -33 l-33 -29 29 33
c28 30 36 37 36 29z m1440 0 c0 -2 -14 -16 -31 -33 -26 -24 -30 -25 -20 -7 11
22 51 53 51 40z m1420 -10 c0 -2 -10 -12 -22 -23 l-23 -19 19 23 c18 21 26 27
26 19z m-533 -99 c-3 -8 -6 -5 -6 6 -1 11 2 17 5 13 3 -3 4 -12 1 -19z m-1430
-30 c-3 -8 -6 -5 -6 6 -1 11 2 17 5 13 3 -3 4 -12 1 -19z m1440 -480 c-1 -90
-3 -19 -3 157 0 176 2 249 3 163 2 -86 2 -230 0 -320z m410 65 c-1 -59 -3 -13
-3 102 0 116 2 164 3 108 2 -56 2 -151 0 -210z m-360 -45 c-1 -62 -3 -14 -3
107 0 121 2 172 3 113 2 -59 2 -158 0 -220z m3603 -608 c-53 -428 -281 -725
-653 -848 -200 -67 -16 -62 -2766 -62 -2202 0 -2507 2 -2599 16 -393 58 -671
271 -797 612 -18 48 -36 103 -39 122 -3 19 7 -3 22 -50 56 -168 132 -289 259
-411 135 -130 278 -205 485 -251 l103 -23 2555 0 c2437 0 2559 1 2640 18 186
40 340 121 475 248 152 145 236 299 286 526 18 82 22 145 28 393 l6 295 3
-245 c2 -145 -2 -284 -8 -340z m-6063 398 c-3 -8 -6 -5 -6 6 -1 11 2 17 5 13
3 -3 4 -12 1 -19z m1440 0 c-3 -8 -6 -5 -6 6 -1 11 2 17 5 13 3 -3 4 -12 1
-19z m-1384 -85 c17 -18 26 -33 21 -33 -13 0 -47 37 -63 67 -14 28 -14 44 1
18 6 -11 24 -35 41 -52z m2871 -3 c11 -14 6 -11 -11 7 -18 18 -33 38 -33 45 0
7 6 4 12 -7 6 -11 20 -31 32 -45z m-2910 -39 c30 -32 30 -33 4 -17 -30 20 -52
50 -62 86 -6 22 -4 21 10 -5 9 -16 30 -45 48 -64z m986 57 c-25 -48 -111 -120
-126 -105 -3 2 9 10 26 17 34 14 85 68 95 100 4 12 9 19 12 17 2 -3 -1 -16 -7
-29z m3365 -18 l30 -35 -28 25 c-16 14 -33 34 -39 45 -11 21 -10 20 37 -35z
m-2840 -29 c11 -6 15 -11 9 -11 -17 0 -62 38 -75 63 -7 15 -2 11 17 -10 16
-17 38 -36 49 -42z m1364 -16 c16 -20 16 -20 -8 0 -12 11 -29 32 -37 47 -22
42 -16 47 7 8 12 -19 29 -44 38 -55z m976 46 c-18 -35 -89 -91 -114 -90 -10 0
-6 4 9 10 42 17 87 56 100 89 7 17 15 29 17 26 2 -2 -3 -18 -12 -35z m1435 -6
c-24 -38 -85 -85 -110 -85 -8 1 1 9 20 19 43 23 87 66 96 93 3 11 8 17 11 14
3 -3 -5 -21 -17 -41z m-4366 20 c-4 -9 -16 -21 -28 -27 -19 -10 -19 -9 3 16
28 30 33 32 25 11z m1446 12 c0 -2 -12 -14 -27 -28 l-28 -24 24 28 c23 25 31
32 31 24z m60 -7 c0 -29 -97 -110 -132 -110 -7 0 7 10 31 22 24 12 55 38 70
59 28 41 31 44 31 29z m1380 7 c0 -2 -12 -14 -27 -28 l-28 -24 24 28 c23 25
31 32 31 24z m1440 0 c0 -2 -12 -14 -27 -28 l-28 -24 24 28 c23 25 31 32 31
24z m-3798 -80 c22 -18 22 -18 1 -8 -24 12 -63 58 -63 75 0 6 9 -2 20 -19 10
-16 30 -38 42 -48z m2858 19 c24 -28 24 -28 3 -17 -13 6 -27 20 -33 31 -12 22
-13 38 -2 25 4 -6 18 -23 32 -39z m-3532 -13 c-27 -2 -69 -2 -95 0 -27 2 -5 3
47 3 52 0 74 -1 48 -3z m835 0 c-13 -2 -35 -2 -50 0 -16 2 -5 4 22 4 28 0 40
-2 28 -4z m600 0 c-29 -2 -78 -2 -110 0 -32 2 -8 3 52 3 61 0 87 -1 58 -3z
m1445 0 c-26 -2 -71 -2 -100 0 -29 2 -8 3 47 3 55 0 79 -1 53 -3z m1440 0
c-26 -2 -71 -2 -100 0 -29 2 -8 3 47 3 55 0 79 -1 53 -3z m-3551 -49 c-3 -3
-12 -4 -19 -1 -8 3 -5 6 6 6 11 1 17 -2 13 -5z m730 0 c-3 -3 -12 -4 -19 -1
-8 3 -5 6 6 6 11 1 17 -2 13 -5z m710 0 c-3 -3 -12 -4 -19 -1 -8 3 -5 6 6 6
11 1 17 -2 13 -5z m730 0 c-3 -3 -12 -4 -19 -1 -8 3 -5 6 6 6 11 1 17 -2 13
-5z m-3205 -11 c-73 -2 -190 -2 -260 0 -70 1 -10 3 133 3 143 0 200 -2 127 -3z
m1440 0 c-73 -2 -190 -2 -260 0 -70 1 -10 3 133 3 143 0 200 -2 127 -3z m1440
0 c-73 -2 -190 -2 -260 0 -70 1 -10 3 133 3 143 0 200 -2 127 -3z m1440 0
c-73 -2 -190 -2 -260 0 -70 1 -10 3 133 3 143 0 200 -2 127 -3z m-5645 -315
c-3 -8 -6 -5 -6 6 -1 11 2 17 5 13 3 -3 4 -12 1 -19z"/>
<path d="M1843 5733 c-7 -2 -13 -13 -13 -24 0 -16 7 -19 40 -19 27 0 43 5 47
15 3 9 4 18 1 20 -7 7 -63 13 -75 8z"/>
<path d="M2668 5732 c-10 -2 -18 -12 -18 -23 0 -16 7 -19 45 -19 38 0 45 3 45
20 0 11 -6 20 -12 21 -7 0 -20 2 -28 3 -8 1 -23 1 -32 -2z"/>
<path d="M3488 5733 c-10 -2 -18 -13 -18 -24 0 -16 7 -19 45 -19 37 0 45 3 45
19 0 16 -30 34 -50 30 -3 -1 -13 -3 -22 -6z"/>
<path d="M4307 5733 c-36 -9 -14 -38 31 -41 36 -3 42 0 42 16 0 17 -30 35 -50
31 -3 -1 -13 -3 -23 -6z"/>
<path d="M5053 5714 c-129 -64 -193 -199 -193 -409 0 -175 41 -288 133 -371
66 -59 139 -81 211 -65 159 37 243 165 253 386 8 183 -35 324 -124 406 -89 82
-186 101 -280 53z m176 -54 c111 -56 171 -185 171 -365 0 -145 -42 -262 -116
-323 -122 -101 -280 -32 -341 149 -14 42 -18 83 -17 189 0 116 3 143 23 194
55 140 178 209 280 156z"/>
<path d="M4957 5323 c-4 -3 -7 -15 -7 -25 0 -16 9 -18 79 -18 57 0 91 -5 122
-20 32 -14 66 -20 125 -20 73 0 82 2 87 20 4 15 -4 25 -30 41 l-36 22 -17 -23
c-15 -20 -23 -22 -56 -16 -21 4 -54 16 -72 27 -25 14 -52 19 -111 19 -43 0
-81 -3 -84 -7z"/>
<path d="M1754 5695 c-6 -15 2 -35 14 -35 18 1 32 18 26 33 -8 21 -33 22 -40
2z"/>
<path d="M1953 5694 c-3 -8 1 -22 9 -30 13 -13 16 -13 28 0 10 13 10 19 0 31
-16 19 -29 19 -37 -1z"/>
<path d="M2576 5701 c-10 -16 5 -42 23 -39 21 4 21 42 -1 46 -9 2 -19 -1 -22
-7z"/>
<path d="M2776 5694 c-9 -24 13 -47 30 -33 19 15 18 35 -2 43 -21 8 -21 8 -28
-10z"/>
<path d="M3396 5701 c-10 -16 5 -42 23 -39 21 4 21 42 -1 46 -9 2 -19 -1 -22
-7z"/>
<path d="M3594 5695 c-9 -23 15 -48 32 -34 19 15 18 35 -2 43 -22 8 -24 8 -30
-9z"/>
<path d="M4220 5700 c-13 -8 -13 -11 2 -26 19 -19 38 -11 38 17 0 21 -16 24
-40 9z"/>
<path d="M4416 5694 c-8 -20 1 -34 20 -34 20 0 30 30 13 41 -20 12 -26 11 -33
-7z"/>
<path d="M1690 5655 c-11 -13 -11 -19 2 -32 17 -16 38 -10 38 11 0 8 -6 19
-14 25 -10 9 -16 8 -26 -4z"/>
<path d="M2516 5655 c-16 -16 -16 -19 -2 -33 22 -23 43 -1 30 29 -10 21 -11
21 -28 4z"/>
<path d="M3337 5652 c-16 -17 -16 -20 -2 -32 13 -11 19 -11 31 1 12 12 12 18
1 33 -12 16 -14 16 -30 -2z"/>
<path d="M4161 5656 c-14 -16 -9 -46 7 -46 5 0 15 7 22 16 11 12 11 18 -2 30
-13 13 -16 13 -27 0z"/>
<path d="M2020 5646 c-10 -13 -10 -19 0 -32 12 -14 15 -14 29 0 14 15 14 17 0
32 -14 14 -17 14 -29 0z"/>
<path d="M2840 5645 c-11 -13 -11 -19 1 -31 12 -12 18 -12 33 -1 16 12 16 14
-2 30 -17 16 -20 16 -32 2z"/>
<path d="M3660 5645 c-22 -27 12 -49 38 -23 8 8 9 15 1 25 -15 17 -24 16 -39
-2z"/>
<path d="M4481 5646 c-14 -17 9 -39 33 -30 19 7 20 16 4 32 -15 15 -23 15 -37
-2z"/>
<path d="M1641 5582 c-12 -22 -6 -32 21 -32 14 0 19 6 16 22 -4 29 -24 34 -37
10z"/>
<path d="M2461 5581 c-12 -21 -5 -31 20 -31 21 0 31 24 16 39 -16 16 -25 14
-36 -8z"/>
<path d="M3284 5585 c-7 -18 3 -35 21 -35 18 0 26 25 12 39 -15 15 -27 14 -33
-4z"/>
<path d="M4106 5584 c-7 -19 1 -34 19 -34 21 0 28 19 15 35 -16 19 -26 19 -34
-1z"/>
<path d="M2071 5581 c-17 -11 -7 -41 13 -41 19 0 28 14 20 34 -7 18 -13 19
-33 7z"/>
<path d="M2892 5577 c-15 -17 1 -42 23 -33 18 6 17 37 -1 43 -6 2 -16 -2 -22
-10z"/>
<path d="M3706 5581 c-7 -10 3 -41 13 -41 17 1 33 20 28 34 -7 17 -32 22 -41
7z"/>
<path d="M4531 5576 c-9 -10 -8 -16 4 -26 21 -17 51 6 34 26 -6 8 -15 14 -19
14 -4 0 -13 -6 -19 -14z"/>
<path d="M1606 5504 c-4 -10 -1 -21 6 -26 19 -11 33 -4 33 18 0 24 -30 30 -39
8z"/>
<path d="M2426 5504 c-4 -10 -1 -21 6 -26 19 -11 33 -4 33 18 0 24 -30 30 -39
8z"/>
<path d="M3247 5501 c-7 -27 24 -37 40 -15 10 14 10 19 0 26 -20 13 -34 9 -40
-11z"/>
<path d="M3747 5512 c-12 -2 -16 -9 -13 -19 3 -8 6 -17 6 -19 0 -8 39 -4 44 5
9 14 -18 38 -37 33z"/>
<path d="M4072 5498 c4 -27 33 -36 42 -13 8 22 -1 35 -25 35 -15 0 -20 -6 -17
-22z"/>
<path d="M4573 5513 c-20 -8 -16 -43 5 -43 25 0 31 7 25 31 -5 20 -9 21 -30
12z"/>
<path d="M2096 5501 c-10 -16 6 -42 21 -37 8 3 17 6 19 6 2 0 4 9 4 20 0 21
-33 29 -44 11z"/>
<path d="M2918 5504 c-6 -5 1 -44 7 -44 17 0 35 16 35 31 0 18 -29 27 -42 13z"/>
<path d="M1586 5424 c-8 -21 1 -34 25 -34 14 0 19 7 19 25 0 29 -34 36 -44 9z"/>
<path d="M2412 5418 c5 -34 38 -37 38 -4 0 20 -5 26 -21 26 -15 0 -20 -5 -17
-22z"/>
<path d="M3237 5433 c-15 -14 -7 -43 12 -43 18 0 35 33 23 44 -7 8 -27 7 -35
-1z"/>
<path d="M3768 5429 c-22 -12 -12 -39 13 -39 12 0 19 7 19 19 0 25 -11 32 -32
20z"/>
<path d="M4054 5425 c-7 -18 3 -35 21 -35 15 0 28 27 19 41 -8 14 -34 11 -40
-6z"/>
<path d="M4593 5433 c-22 -8 -15 -43 7 -43 13 0 20 7 20 19 0 22 -9 30 -27 24z"/>
<path d="M2113 5414 c-3 -8 -1 -20 4 -25 14 -14 43 0 43 22 0 24 -38 26 -47 3z"/>
<path d="M2930 5418 c0 -23 16 -39 33 -32 28 10 21 44 -8 44 -14 0 -25 -6 -25
-12z"/>
<path d="M1580 5336 c0 -20 5 -26 21 -26 15 0 20 5 17 22 -5 34 -38 37 -38 4z"/>
<path d="M2407 5354 c-4 -4 -7 -16 -7 -26 0 -14 6 -19 23 -16 14 2 22 10 22
23 0 20 -25 32 -38 19z"/>
<path d="M3227 5354 c-4 -4 -7 -16 -7 -26 0 -13 7 -18 26 -18 21 0 25 4 22 22
-3 23 -27 35 -41 22z"/>
<path d="M4047 5354 c-4 -4 -7 -16 -7 -26 0 -13 7 -18 26 -18 21 0 25 4 22 22
-3 23 -27 35 -41 22z"/>
<path d="M2127 5344 c-16 -16 -6 -34 19 -34 19 0 25 5 22 17 -3 19 -29 29 -41
17z"/>
<path d="M2947 5343 c-16 -15 -6 -33 18 -33 18 0 25 5 25 20 0 20 -28 28 -43
13z"/>
<path d="M3760 5330 c0 -15 7 -20 25 -20 18 0 25 5 25 20 0 15 -7 20 -25 20
-18 0 -25 -5 -25 -20z"/>
<path d="M4582 5333 c2 -10 13 -19 26 -21 17 -3 22 2 22 17 0 16 -6 21 -26 21
-19 0 -25 -5 -22 -17z"/>
<path d="M1580 5250 c0 -13 7 -20 20 -20 13 0 20 7 20 20 0 13 -7 20 -20 20
-13 0 -20 -7 -20 -20z"/>
<path d="M2127 5263 c-13 -12 -7 -43 8 -43 16 0 38 34 28 44 -8 8 -28 8 -36
-1z"/>
<path d="M2400 5250 c0 -15 7 -20 25 -20 18 0 25 5 25 20 0 15 -7 20 -25 20
-18 0 -25 -5 -25 -20z"/>
<path d="M2942 5248 c2 -15 10 -23 23 -23 30 0 27 39 -3 43 -20 3 -23 0 -20
-20z"/>
<path d="M3220 5250 c0 -15 7 -20 25 -20 18 0 25 5 25 20 0 15 -7 20 -25 20
-18 0 -25 -5 -25 -20z"/>
<path d="M3762 5248 c2 -15 10 -23 23 -23 13 0 21 8 23 23 3 18 -1 22 -23 22
-22 0 -26 -4 -23 -22z"/>
<path d="M4042 5253 c2 -10 13 -19 26 -21 17 -3 22 2 22 17 0 16 -6 21 -26 21
-19 0 -25 -5 -22 -17z"/>
<path d="M4583 5254 c-6 -17 14 -36 32 -31 6 2 11 13 13 25 3 17 -2 22 -18 22
-11 0 -23 -7 -27 -16z"/>
<path d="M1608 5192 c-25 -5 -23 -42 1 -42 24 0 31 10 22 30 -3 9 -14 14 -23
12z"/>
<path d="M3245 5186 c-24 -17 -13 -46 14 -39 21 5 29 37 12 47 -4 3 -16 -1
-26 -8z"/>
<path d="M2110 5165 c0 -18 5 -25 19 -25 23 0 37 30 19 42 -24 14 -38 8 -38
-17z"/>
<path d="M2410 5171 c0 -16 6 -21 26 -21 33 0 30 33 -4 38 -17 3 -22 -2 -22
-17z"/>
<path d="M2937 5183 c-4 -3 -7 -15 -7 -25 0 -23 35 -24 44 -1 9 22 -21 43 -37
26z"/>
<path d="M3754 5175 c-8 -20 4 -35 27 -35 14 0 19 7 19 25 0 18 -5 25 -20 25
-11 0 -23 -7 -26 -15z"/>
<path d="M4056 5181 c-11 -17 5 -39 25 -34 25 7 25 43 0 43 -11 0 -22 -4 -25
-9z"/>
<path d="M4576 5174 c-8 -21 1 -34 25 -34 14 0 19 7 19 25 0 29 -34 36 -44 9z"/>
<path d="M1621 5111 c-17 -11 -7 -41 13 -41 19 0 28 14 20 34 -7 18 -13 19
-33 7z"/>
<path d="M2441 5111 c-17 -11 -7 -41 13 -41 22 0 30 20 15 36 -9 8 -19 10 -28
5z"/>
<path d="M3266 5107 c-22 -16 -12 -47 15 -40 20 6 24 20 11 40 -7 10 -12 10
-26 0z"/>
<path d="M4088 5109 c-22 -12 -12 -39 13 -39 12 0 19 7 19 19 0 25 -11 32 -32
20z"/>
<path d="M2094 5095 c-7 -18 3 -35 21 -35 18 0 28 32 13 42 -19 11 -28 10 -34
-7z"/>
<path d="M2914 5095 c-7 -18 3 -35 21 -35 18 0 28 32 13 42 -19 11 -28 10 -34
-7z"/>
<path d="M3736 5094 c-4 -10 -1 -21 6 -26 19 -11 33 -4 33 18 0 24 -30 30 -39
8z"/>
<path d="M4556 5094 c-4 -10 -1 -21 6 -26 19 -11 33 -4 33 18 0 24 -30 30 -39
8z"/>
<path d="M1644 5029 c-3 -6 0 -17 7 -25 18 -17 44 -2 36 20 -7 18 -33 21 -43
5z"/>
<path d="M2466 5031 c-3 -4 1 -16 8 -27 12 -15 16 -16 29 -5 9 7 13 19 10 27
-6 15 -39 19 -47 5z"/>
<path d="M3294 5025 c-4 -9 -2 -21 3 -26 14 -14 45 1 41 20 -4 22 -37 26 -44
6z"/>
<path d="M3702 5028 c-17 -17 -15 -26 8 -38 15 -8 21 -6 30 9 8 16 7 22 -8 30
-13 7 -22 7 -30 -1z"/>
<path d="M4116 5031 c-7 -10 3 -41 13 -41 17 1 33 20 28 34 -7 17 -32 22 -41
7z"/>
<path d="M4521 5022 c-7 -14 -5 -21 9 -30 16 -10 21 -9 29 7 7 12 6 22 -1 29
-17 17 -26 15 -37 -6z"/>
<path d="M2055 5020 c-4 -6 -1 -17 5 -26 14 -16 40 -2 40 22 0 16 -36 19 -45
4z"/>
<path d="M2874 5019 c-3 -6 1 -18 10 -27 14 -15 17 -15 30 3 8 11 12 23 10 27
-8 12 -42 10 -50 -3z"/>
<path d="M1701 4966 c-9 -10 -8 -16 4 -26 13 -11 19 -10 33 4 15 15 15 18 2
26 -20 13 -26 12 -39 -4z"/>
<path d="M2524 4965 c-7 -18 3 -35 21 -35 15 0 28 27 19 41 -8 14 -34 11 -40
-6z"/>
<path d="M2831 4966 c-14 -16 -9 -46 7 -46 5 0 15 7 22 16 11 12 11 18 -2 30
-13 13 -16 13 -27 0z"/>
<path d="M3351 4971 c-19 -12 -6 -43 16 -39 10 2 18 12 18 22 0 22 -14 29 -34
17z"/>
<path d="M3650 4966 c-10 -13 -10 -19 0 -32 12 -14 15 -14 29 0 14 15 14 17 0
32 -14 14 -17 14 -29 0z"/>
<path d="M4170 4965 c-12 -14 -11 -18 1 -26 20 -12 34 -6 34 16 0 24 -19 30
-35 10z"/>
<path d="M4470 4966 c-10 -13 -10 -19 0 -32 12 -14 15 -14 29 0 14 15 14 17 0
32 -14 14 -17 14 -29 0z"/>
<path d="M1996 4961 c-3 -4 1 -17 9 -27 13 -18 15 -18 31 -2 9 9 13 21 10 27
-8 13 -43 15 -50 2z"/>
<path d="M1771 4921 c-12 -21 -5 -31 20 -31 21 0 31 24 16 39 -16 16 -25 14
-36 -8z"/>
<path d="M2591 4921 c-12 -21 -5 -31 20 -31 21 0 31 24 16 39 -16 16 -25 14
-36 -8z"/>
<path d="M3416 4923 c-10 -25 24 -50 37 -28 5 10 4 21 -3 31 -16 19 -26 18
-34 -3z"/>
<path d="M3587 4928 c-17 -12 -15 -48 2 -48 22 1 34 20 25 40 -8 18 -12 19
-27 8z"/>
<path d="M4239 4923 c-11 -13 -10 -17 5 -29 22 -16 36 -10 36 16 0 24 -25 33
-41 13z"/>
<path d="M4407 4928 c-17 -12 -15 -48 2 -48 22 1 34 20 25 40 -8 18 -12 19
-27 8z"/>
<path d="M1930 4904 c0 -22 3 -24 23 -18 29 9 29 8 21 28 -3 9 -15 16 -25 16
-14 0 -19 -7 -19 -26z"/>
<path d="M2752 4908 c3 -24 17 -32 36 -20 18 12 4 42 -20 42 -14 0 -19 -6 -16
-22z"/>
<path d="M1847 4901 c-6 -24 0 -31 25 -31 14 0 19 6 16 22 -4 29 -34 36 -41 9z"/>
<path d="M2677 4913 c-4 -3 -7 -15 -7 -25 0 -13 7 -18 26 -18 20 0 25 4 20 16
-3 9 -6 20 -6 25 0 10 -23 12 -33 2z"/>
<path d="M3497 4913 c-4 -3 -7 -15 -7 -25 0 -13 7 -18 25 -18 29 0 36 34 9 44
-19 7 -19 7 -27 -1z"/>
<path d="M4322 4908 c-20 -20 -14 -38 14 -38 20 0 25 4 22 22 -4 26 -19 33
-36 16z"/>
</g>
</svg>
